# xmcd
#
# Track frame offsets: 
#        150
#        11037
#        25570
#        41715
#        52157
#        63692
#        74787
#        88822
#        98780
#        109332
#        123620
#        136800
#        148375
#        162670
#        177302
#        186565
#        197115
#        211420
#        223152
#        239205
#        242772
#        245262
#        246530
#        247792
#        249045
#        250115
#        252515
#        254952
#        257360
#        259832
#        262297
#        264852
#        267155
#        269620
#        272130
#        274632
#        276912
#        279402
#        281945
#        284395
#        286857
#        289327
#        291860
#        294255
#        296597
#
# Disc length: 3987 seconds
#
# Revision: 0
# Processed by: cddbd v1.4PL0 Copyright (c) Steve Scherf et al.
# Submitted via: ExactAudioCopy v0.90b4
#
DISCID=070f912d
DTITLE=Lars-Luis Linek - Harmonica Trio
DYEAR=1996
DGENRE=Instrumental
TTITLE0=Hot Jazz De France
TTITLE1=Bahama Boat
TTITLE2=Hungarian Dance No. 5
TTITLE3=Autumn In Bombay
TTITLE4=Toots Swings
TTITLE5=Trio de Janeiro
TTITLE6=La Seine En Peine
TTITLE7=New Orleans Rythm
TTITLE8=Country Waltz
TTITLE9=Buenos Tiempos
TTITLE10=Swing Pour Django
TTITLE11=X-Mas Harmonicats
TTITLE12=Beguine the Polka
TTITLE13=Mississippi Mood
TTITLE14=Hotacha's Gotcha
TTITLE15=Picca's Blues
TTITLE16=New York Waltz
TTITLE17=Chicago Shuffle
TTITLE18=Humoreske (A. Dvorak)
TTITLE19=Bass Harmonica Mood
TTITLE20=Chord Harmonica Mood
TTITLE21=Country Harp Mood
TTITLE22=Country Harp Mood
TTITLE23=Country Harp Mood
TTITLE24=Country Harp Mood
TTITLE25=Hot Jazz De France
TTITLE26=Bahama Boat
TTITLE27=Hungarian Dance No. 5
TTITLE28=Autumn In Bombay
TTITLE29=Toots Swings
TTITLE30=Trio de Janeiro
TTITLE31=La Seine En Peine
TTITLE32=New Orleans Rythm
TTITLE33=Country Waltz
TTITLE34=Country Waltz
TTITLE35=Buenos Tiempos
TTITLE36=Swing Pour Django
TTITLE37=X-Mas Harmonicats
TTITLE38=Beguine the Polka
TTITLE39=Mississippi Mood
TTITLE40=Hotacha's Gotcha
TTITLE41=Picca's Blues
TTITLE42=New York Waltz
TTITLE43=Chicago Shuffle
TTITLE44=Humoreske (A. Dvorak)
EXTD=
EXTT0=
EXTT1=
EXTT2=
EXTT3=
EXTT4=
EXTT5=
EXTT6=
EXTT7=
EXTT8=
EXTT9=
EXTT10=
EXTT11=
EXTT12=
EXTT13=
EXTT14=
EXTT15=
EXTT16=
EXTT17=
EXTT18=
EXTT19=
EXTT20=
EXTT21=
EXTT22=
EXTT23=
EXTT24=
EXTT25=
EXTT26=
EXTT27=
EXTT28=
EXTT29=
EXTT30=
EXTT31=
EXTT32=
EXTT33=
EXTT34=
EXTT35=
EXTT36=
EXTT37=
EXTT38=
EXTT39=
EXTT40=
EXTT41=
EXTT42=
EXTT43=
EXTT44=
PLAYORDER=
